<?xml version="1.0" encoding="UTF-8"?>
<svg width="34px" height="34px" viewBox="0 0 34 34" version="1.1" xmlns="http://www.w3.org/2000/svg" xmlns:xlink="http://www.w3.org/1999/xlink">
    <title>Group 5</title>
    <g id="Cadastrar-Curriculo" stroke="none" stroke-width="1" fill="none" fill-rule="evenodd">
        <g id="Cadastro_cv" transform="translate(-1288.000000, -1017.000000)">
            <g id="Group-5" transform="translate(1288.000000, 1017.000000)">
                <circle id="Oval" fill-opacity="0.520884267" fill="#4C1D95" cx="17" cy="17" r="17"></circle>
                <g id="Group-4" transform="translate(10.000000, 9.000000)" fill="#FFFFFF" fill-rule="nonzero">
                    <g id="Group-2">
                        <path d="M4.66790144,12.5280346 C4.77979141,12.641714 4.92617348,12.6984555 5.07270372,12.6984555 C5.21926618,12.6984555 5.36582863,12.641714 5.47753821,12.5280346 L7.00011274,10.9812884 L8.52268727,12.5280346 C8.6345257,12.641714 8.78095931,12.6984555 8.92745734,12.6984555 C9.07401979,12.6984555 9.22058225,12.641714 9.33229183,12.5280346 C9.55590426,12.3008722 9.55590426,11.9326741 9.33229183,11.7055117 L7.80958845,10.1587656 L9.33229183,8.61201939 C9.55590426,8.384857 9.55590426,8.0166589 9.33229183,7.78949651 C9.1086794,7.56233412 8.7462997,7.56233412 8.522494,7.78949651 L6.99991947,9.33624267 L5.47740936,7.78949651 C5.25379693,7.56233412 4.89134637,7.56233412 4.66773394,7.78949651 C4.44412151,8.0166589 4.44412151,8.384857 4.66773394,8.61201939 L6.19031491,10.1587656 L4.66773394,11.7055117 C4.44428901,11.9326741 4.44428901,12.3010685 4.66790144,12.5280346 Z" id="Path"></path>
                        <path d="M1.25000702,13.3574293 C1.25000702,14.8168053 2.41900204,16 3.86093179,16 L10.1390618,16 C11.5810431,16 12.750007,14.8168053 12.750007,13.3574293 L12.750007,4.3174133 L1.25000702,4.3174133 L1.25000702,13.3574293 Z M2.37790013,5.45896485 L11.6220805,5.45896485 L11.6220805,13.3574293 C11.6220805,14.1849915 10.9567192,14.8584288 10.1390618,14.8584288 L3.86093179,14.8584288 C3.04326791,14.8584288 2.37790013,14.1851878 2.37790013,13.3574293 L2.37790013,5.45896485 Z" id="Shape"></path>
                        <path d="M13.43108,2.11936358 L9.98019451,2.11936358 L9.98019451,1.55169975 C9.98019451,0.696035117 9.30993703,0 8.48628824,0 L5.5269507,0 C4.70312797,0 4.03301866,0.696035117 4.03301866,1.55169975 L4.03301866,2.11936358 L0.569100401,2.11936358 C0.254702998,2.11936358 0,2.38391516 0,2.71047663 C0,3.03704466 0.254702998,3.30159624 0.569100401,3.30159624 L13.4308867,3.30159624 C13.7452712,3.30159624 14,3.03704466 14,2.71047663 C14,2.38391516 13.7452712,2.11936358 13.43108,2.11936358 Z M8.84183909,2.11936358 L5.17101331,2.11936358 L5.17101331,1.55169975 C5.17101331,1.34811749 5.33058922,1.182232 5.52675743,1.182232 L8.48609497,1.182232 C8.68213434,1.182232 8.84183909,1.34794733 8.84183909,1.55169975 L8.84183909,2.11936358 Z" id="Shape"></path>
                    </g>
                </g>
            </g>
        </g>
    </g>
</svg>