<?xml version="1.0" encoding="UTF-8"?>
<svg width="34px" height="34px" viewBox="0 0 34 34" version="1.1" xmlns="http://www.w3.org/2000/svg" xmlns:xlink="http://www.w3.org/1999/xlink">
    <title>Group 6</title>
    <g id="Cadastrar-Curriculo" stroke="none" stroke-width="1" fill="none" fill-rule="evenodd">
        <g id="Cadastro_cv" transform="translate(-1288.000000, -944.000000)">
            <g id="Group-6" transform="translate(1288.000000, 944.000000)">
                <ellipse id="Oval" fill="#FFFFFF" cx="17" cy="17.5" rx="12" ry="11.5"></ellipse>
                <path d="M17,34 C7.61125325,34 0,26.3887468 0,17 C0,7.61125325 7.61125325,0 17,0 C26.3887468,0 34,7.61125325 34,17 C34,26.3887468 26.3887468,34 17,34 Z M7,16.999789 C7,17.8368394 7.67809047,18.5149298 8.51514086,18.5149298 L14.8788407,18.5149298 C15.2132323,18.5149298 15.4846481,18.7863348 15.4846481,19.1211593 L15.4846481,25.4848591 C15.4846481,26.3214875 16.1631606,27 16.999789,27 C17.8368394,27 18.5149298,26.3214875 18.5149298,25.4848591 L18.5149298,19.1211593 C18.5149298,18.7863348 18.7863348,18.5149298 19.1211593,18.5149298 L25.4848591,18.5149298 C26.3214875,18.5149298 27,17.8368394 27,16.999789 C27,16.1631606 26.3214875,15.4846481 25.4848591,15.4846481 L19.1211593,15.4846481 C18.7863348,15.4846481 18.5149298,15.2132431 18.5149298,14.8788407 L18.5149298,8.51514086 C18.5149298,7.67809047 17.8368394,7 16.999789,7 C16.1631606,7 15.4846481,7.67809047 15.4846481,8.51514086 L15.4846481,14.8788407 C15.4846481,15.2132323 15.2132431,15.4846481 14.8788407,15.4846481 L8.51514086,15.4846481 C7.67809047,15.4846481 7,16.1631606 7,16.999789 Z" id="Shape" fill="#4C1D95" fill-rule="nonzero"></path>
            </g>
        </g>
    </g>
</svg>