<?xml version="1.0" encoding="UTF-8"?>
<svg width="15px" height="16px" viewBox="0 0 15 16" version="1.1" xmlns="http://www.w3.org/2000/svg" xmlns:xlink="http://www.w3.org/1999/xlink">
    <title>Icon/Gmail</title>
    <g id="Symbols" stroke="none" stroke-width="1" fill="none" fill-rule="evenodd">
        <g id="Button/Solid/Desktop/Large" transform="translate(-57.000000, -14.000000)" fill="#FFFFFF">
            <g id="Icon/Gmail" transform="translate(57.000000, 14.000000)">
                <path d="M11.483833,0.993708197 C12.2314801,1.42076612 12.6549891,1.85492197 12.8377604,1.98741639 C12.074143,2.73802098 11.3401002,3.47383824 10.5912701,4.2096555 C10.0352667,3.73113768 9.42070547,3.28988392 8.35483513,3.12781485 C8.13420825,3.09587423 7.91594734,3.08049541 7.70123539,3.08049541 C5.56298829,3.08049541 3.77076458,4.62665805 3.29402124,6.65311298 C3.17986309,7.10915406 3.14733098,7.57347605 3.1875525,8.03661505 C3.35021307,9.92052017 4.61127609,11.4660913 6.31477586,12.0179543 C6.7489317,12.1551806 7.19846636,12.2196534 7.65095849,12.2196534 C7.75683573,12.2196534 7.86271297,12.2166959 7.96918171,12.209598 C8.77183768,12.1575466 9.52421674,11.9446091 10.2044337,11.495666 C11.350747,10.7154867 11.7210216,9.49405374 11.7233876,9.19180083 C11.5098587,9.19180083 7.818351,9.19180083 7.6243413,9.19180083 C7.6249328,9.09124702 7.63972012,7.17599277 7.64681804,6.24084237 L7.65450745,6.11603736 C10.0541944,6.11603736 12.4456005,6.11603736 14.8523855,6.11603736 C15.2398134,8.3607532 14.8908325,10.7231761 13.4931346,12.5698172 C12.5266351,13.8433016 11.2401379,14.6453661 9.70639658,15.0428493 C9.02558816,15.2185227 8.33531586,15.3048807 7.63972012,15.3048807 C7.49184688,15.3048807 7.34338214,15.3007403 7.1949174,15.2930509 C5.69429973,15.2049184 4.32854245,14.7334985 3.12130529,13.8433016 C1.5627213,12.6952137 0.580842963,11.1644299 0.16857236,9.27342686 C0.0189246372,8.58847799 -0.0349012235,7.90412062 0.0224735951,7.21266533 C0.130125316,5.57837024 0.700916037,4.11383364 1.74845009,2.84094076 C2.83265672,1.50889858 4.21556729,0.640586891 5.86701568,0.221218372 C6.28756718,0.110609186 6.70752719,0.0443619731 7.13458512,0.022476733 C7.37768873,0.0147873244 7.62020085,0 7.86330447,0 C9.15867408,0.0147873244 10.3706432,0.338925474 11.483833,0.993708197 Z" id="Fill-22"></path>
            </g>
        </g>
    </g>
</svg>