<?xml version="1.0" encoding="UTF-8"?>
<svg width="102px" height="8px" viewBox="0 0 102 8" version="1.1" xmlns="http://www.w3.org/2000/svg" xmlns:xlink="http://www.w3.org/1999/xlink">
    <title>Logo/WeCann</title>
    <g id="Home" stroke="none" stroke-width="1" fill="none" fill-rule="evenodd">
        <g transform="translate(-130.000000, -830.000000)" id="Logo/WeCann">
            <g transform="translate(130.000000, 829.000000)">
                <text id="produzido-por" font-family="MontserratRoman-Regular, Montserrat" font-size="7" font-weight="normal" fill="#334155">
                    <tspan x="0" y="7">produzido por </tspan>
                </text>
                <g id="Group" transform="translate(58.000000, 1.000000)" fill="#FFFFFF" fill-rule="nonzero">
                    <path d="M0.465753425,0 C0.182648402,0 0,0.207042254 0,0.522535211 C0,0.828169014 0.182648402,1.03521127 0.465753425,1.03521127 L9.52511416,1.03521127 C9.80821918,1.03521127 10,0.828169014 10,0.512676056 C10,0.207042254 9.80821918,0 9.52511416,0 L0.465753425,0 Z M2.75799087,7 C3.02283105,7 3.28767123,6.83239437 3.42465753,6.57605634 L4.99543379,3.51971831 L6.56621005,6.57605634 C6.70319635,6.83239437 6.96803653,7 7.24200913,7 C7.51598174,7 7.76255708,6.82253521 7.85388128,6.54647887 L9.24200913,2.68169014 C9.40639269,2.21830986 9.21461187,1.91267606 8.74885845,1.91267606 C8.50228311,1.91267606 8.28310502,2.08028169 8.19178082,2.33661972 L7.13242009,5.47183099 L5.543379,2.2971831 C5.44292237,2.09014085 5.22374429,1.94225352 4.99543379,1.94225352 C4.76712329,1.94225352 4.54794521,2.09014085 4.44748858,2.2971831 L2.85844749,5.47183099 L1.80821918,2.32676056 C1.7260274,2.08028169 1.50684932,1.92253521 1.25114155,1.92253521 C0.794520548,1.92253521 0.593607306,2.22816901 0.757990868,2.6915493 L2.1369863,6.54647887 C2.2283105,6.82253521 2.47488584,7 2.74885845,7 L2.75799087,7 Z" id="Shape"></path>
                    <path d="M13.0265233,0.636611027 C12.9379884,0.962081414 13.0757094,1.2875518 13.3708259,1.39604193 C15.1218503,2.0469827 16.4597116,0.50839542 18.3976431,1.29741454 C18.6927596,1.42563015 18.8993411,1.31714002 18.9780388,1.02125785 C19.0567366,0.715512939 18.9190155,0.419630769 18.6435735,0.301277901 C16.5482465,-0.58636861 14.9152687,0.814140329 13.6561051,0.370317074 C13.3216398,0.251964206 13.1150583,0.340728857 13.0363605,0.626748288 L13.0265233,0.636611027 Z M13.0265233,3.26996234 C12.9379884,3.59543273 13.0757094,3.91104038 13.3708259,4.01953051 C15.1218503,4.68033402 16.4597116,3.14174673 18.3976431,3.93076585 C18.6927596,4.05898146 18.8993411,3.95049133 18.9780388,3.65460916 C19.0567366,3.34886425 18.9190155,3.05298208 18.6435735,2.93462922 C16.5482465,2.0469827 14.9152687,3.44749164 13.6561051,3.00366839 C13.3216398,2.88531552 13.1150583,2.97408017 13.0363605,3.2600996 L13.0265233,3.26996234 Z M13.0265233,6.08084296 C12.9379884,6.40631335 13.0757094,6.72192099 13.3708259,6.83041112 C15.1218503,7.49121464 16.4597116,5.95262735 18.3976431,6.74164647 C18.6927596,6.85999934 18.8993411,6.76137195 18.9780388,6.46548978 C19.0567366,6.15974487 18.9190155,5.8638627 18.6435735,5.74550983 C16.5482465,4.85786332 14.9152687,6.25837226 13.6561051,5.81454901 C13.3216398,5.69619614 13.1150583,5.78496079 13.0363605,6.07098022 L13.0265233,6.08084296 Z" id="Shape"></path>
                    <path d="M23.1347305,5 C22.9730539,5 22.8228543,4.97559853 22.6841317,4.92679558 C22.5454092,4.87799263 22.4251497,4.80847145 22.3233533,4.71823204 C22.2215569,4.62799263 22.1422156,4.52209945 22.0853293,4.40055249 C22.0284431,4.27900552 22,4.14548803 22,4 C22,3.85451197 22.0284431,3.72099448 22.0853293,3.59944751 C22.1422156,3.47790055 22.2220559,3.37200737 22.3248503,3.28176796 C22.4276447,3.19152855 22.5479042,3.12200737 22.6856287,3.07320442 C22.8233533,3.02440147 22.9740519,3 23.1377246,3 C23.3193613,3 23.4835329,3.02900552 23.6302395,3.08701657 C23.7769461,3.14502762 23.9001996,3.23020258 24,3.34254144 L23.6886228,3.60773481 C23.6167665,3.53222836 23.5369261,3.47559853 23.4491018,3.4378453 C23.3612774,3.40009208 23.2654691,3.38121547 23.1616766,3.38121547 C23.0638723,3.38121547 22.9740519,3.39594843 22.8922156,3.42541436 C22.8103792,3.45488029 22.739521,3.49723757 22.6796407,3.55248619 C22.6197605,3.60773481 22.5733533,3.67311234 22.5404192,3.74861878 C22.507485,3.82412523 22.491018,3.90791897 22.491018,4 C22.491018,4.09208103 22.507485,4.17587477 22.5404192,4.25138122 C22.5733533,4.32688766 22.6197605,4.39226519 22.6796407,4.44751381 C22.739521,4.50276243 22.8103792,4.54511971 22.8922156,4.57458564 C22.9740519,4.60405157 23.0638723,4.61878453 23.1616766,4.61878453 C23.2654691,4.61878453 23.3612774,4.59990792 23.4491018,4.5621547 C23.5369261,4.52440147 23.6167665,4.46685083 23.6886228,4.38950276 L24,4.65469613 C23.9001996,4.76703499 23.7769461,4.85267035 23.6302395,4.91160221 C23.4835329,4.97053407 23.3183633,5 23.1347305,5 Z" id="Path" transform="translate(23.000000, 4.000000) rotate(-360.000000) translate(-23.000000, -4.000000) "></path>
                    <path d="M29,5 L29.7949045,3 L30.2025478,3 L31,5 L30.566879,5 L29.9146497,3.23428571 L30.077707,3.23428571 L29.4229299,5 L29,5 Z M29.3974522,4.57142857 L29.5070064,4.22 L30.4242038,4.22 L30.5363057,4.57142857 L29.3974522,4.57142857 Z" id="Shape" transform="translate(30.000000, 4.000000) rotate(-360.000000) translate(-30.000000, -4.000000) "></path>
                    <polygon id="Path" transform="translate(37.000000, 4.000000) rotate(-360.000000) translate(-37.000000, -4.000000) " points="36 5 36 3 36.4174455 3 37.7040498 4.44 37.5015576 4.44 37.5015576 3 38 3 38 5 37.5856698 5 36.2959502 3.56 36.4984424 3.56 36.4984424 5"></polygon>
                    <polygon id="Path" transform="translate(43.000000, 4.000000) rotate(-360.000000) translate(-43.000000, -4.000000) " points="42 5 42 3 42.4174455 3 43.7040498 4.44 43.5015576 4.44 43.5015576 3 44 3 44 5 43.5856698 5 42.2959502 3.56 42.4984424 3.56 42.4984424 5"></polygon>
                </g>
            </g>
        </g>
    </g>
</svg>